<?xml version="1.0" encoding="UTF-8"?>
<svg version="1.1" xmlns="http://www.w3.org/2000/svg" width="866" height="650">
<path d="M0 0 C4.58167027 0.51741996 7.10079994 2.29969555 10.6875 5.125 C17.14655439 10.13502312 23.72386578 14.92673246 30.625 19.3125 C31.40875 19.869375 32.1925 20.42625 33 21 C33 21.66 33 22.32 33 23 C33.78375 23.309375 34.5675 23.61875 35.375 23.9375 C38 25 38 25 40 26 C40 26.66 40 27.32 40 28 C41.08861328 28.4021875 41.08861328 28.4021875 42.19921875 28.8125 C44.96864024 29.98670381 47.30919434 31.3394324 49.8125 33 C50.60269531 33.515625 51.39289062 34.03125 52.20703125 34.5625 C52.79871094 35.036875 53.39039063 35.51125 54 36 C54 36.66 54 37.32 54 38 C55.01126953 38.32677734 55.01126953 38.32677734 56.04296875 38.66015625 C59.91204948 40.4132536 62.97261791 42.83867976 66.3125 45.4375 C71.85851146 49.68041691 77.46972739 53.76958142 83.25 57.6875 C88.86254484 61.50041775 94.33446194 65.44446835 99.73828125 69.55078125 C105.320274 73.77139882 111.03036206 77.82007383 116.7109375 81.90625 C119.26832911 83.74658446 121.81811631 85.595592 124.3515625 87.46875 C130.00877561 91.64621077 130.00877561 91.64621077 136 95.3125 C138.52325225 96.73182939 140.09415097 97.89353528 142 100 C142.66 100.33 143.32 100.66 144 101 C144 101.66 144 102.32 144 103 C144.72703125 103.26039063 145.4540625 103.52078125 146.203125 103.7890625 C149.08894951 105.03851166 151.2435318 106.48317528 153.75 108.375 C157.85465824 111.4286002 161.99351421 114.41377314 166.18652344 117.3449707 C186.65531146 131.65531146 186.65531146 131.65531146 191 136 C191.09519368 138.7998972 191.12553944 141.57506174 191.11352539 144.37524414 C191.11367142 145.25321152 191.11381744 146.13117889 191.1139679 147.03575134 C191.11326844 149.95224435 191.10547455 152.86867433 191.09765625 155.78515625 C191.09579218 157.80154892 191.09436823 159.81794204 191.09336853 161.83433533 C191.08954244 167.15265138 191.07971139 172.4709403 191.06866455 177.78924561 C191.05845238 183.21170688 191.05387133 188.63417252 191.04882812 194.05664062 C191.0380892 204.70443903 191.02101169 215.35221726 191 226 C189.02 226.99 189.02 226.99 187 228 C187 228.66 187 229.32 187 230 C185.015625 231.41015625 185.015625 231.41015625 182.25 233.0625 C177.05571452 236.27423377 172.22091096 239.78029255 167.3671875 243.48046875 C163.48057147 246.41835546 159.49012222 249.2052383 155.5 252 C150.52296273 255.48864938 145.59398996 259.01606317 140.75 262.6875 C136.51167685 265.8926585 132.22726924 269.01482888 127.875 272.0625 C126.26238281 273.19365234 126.26238281 273.19365234 124.6171875 274.34765625 C122 276 122 276 120 276 C120 276.66 120 277.32 120 278 C118.33984375 279.33984375 118.33984375 279.33984375 115.9375 280.9375 C111.47031454 283.97443003 107.09435702 287.10430764 102.75 290.3125 C100.16781415 292.20989819 97.58395568 294.10501299 95 296 C94.35321289 296.47501953 93.70642578 296.95003906 93.04003906 297.43945312 C91.15584521 298.81961325 89.26624738 300.19202723 87.375 301.5625 C86.80749023 301.97991455 86.23998047 302.3973291 85.65527344 302.82739258 C83.20842596 304.59150957 80.98871542 306.00433664 78.1640625 307.08984375 C77.09285156 307.54037109 77.09285156 307.54037109 76 308 C75.67 308.99 75.34 309.98 75 311 C70.66666667 314 70.66666667 314 68 314 C68 314.66 68 315.32 68 316 C66.68 316 65.36 316 64 316 C63.79127584 304.38670139 63.63145778 292.77385037 63.53369045 281.15905666 C63.48676084 275.76543775 63.42313285 270.37310389 63.32104492 264.98022461 C63.2231007 259.7735289 63.16941056 254.56806728 63.14610481 249.36052132 C63.12950184 247.37606438 63.0970774 245.39167348 63.04842949 243.40774345 C62.68175893 227.83191122 62.68175893 227.83191122 65.97039795 223.2618103 C68.2510396 221.46934324 70.38030048 220.22144907 73 219 C73.87398437 218.29359375 74.74796875 217.5871875 75.6484375 216.859375 C78.56751178 214.55126976 81.58769451 212.39792875 84.625 210.25 C85.87787918 209.35976192 87.1304805 208.46913267 88.3828125 207.578125 C88.99801758 207.14048828 89.61322266 206.70285156 90.24707031 206.25195312 C93.5572286 203.88781779 96.83842534 201.48410307 100.12109375 199.08203125 C102.31045324 197.49868171 104.50951438 195.93619927 106.72265625 194.38671875 C107.35945312 193.93876953 107.99625 193.49082031 108.65234375 193.02929688 C109.9005557 192.15248542 111.15174695 191.27989592 112.40625 190.41210938 C115.23031301 188.42373848 117.0603316 186.9095026 119 184 C119.16713569 181.37468476 119.16713569 181.37468476 119 179 C118.42507813 178.72800781 117.85015625 178.45601562 117.2578125 178.17578125 C114.97968107 176.98941869 112.97107092 175.6712778 110.875 174.1875 C109.99714844 173.56617188 109.11929688 172.94484375 108.21484375 172.3046875 C103.49797579 168.92321472 98.79620447 165.52096835 94.09594727 162.11645508 C88.16430551 157.82525912 82.1906668 153.59719631 76.19848633 149.39111328 C70.82933144 145.61210003 65.54408008 141.72835463 60.27441406 137.81225586 C55.62358085 134.38462959 50.84552876 131.29668306 45.87890625 128.33984375 C45.25886719 127.89769531 44.63882813 127.45554687 44 127 C44 126.34 44 125.68 44 125 C43.43667969 124.73703125 42.87335937 124.4740625 42.29296875 124.203125 C39.80078528 122.89547166 37.60170989 121.38672978 35.3125 119.75 C32.03281086 117.42387687 28.73567209 115.14494319 25.375 112.9375 C21.92020734 110.65035503 18.61130792 108.23126145 15.32421875 105.7109375 C13.45440068 104.3345 11.57047514 103.02123371 9.64453125 101.7265625 C8.75942871 101.12871948 8.75942871 101.12871948 7.85644531 100.51879883 C6.67667237 99.72548662 5.49251232 98.93865328 4.30371094 98.15893555 C0.11058377 95.33175132 0.11058377 95.33175132 -1 92 C-1.09665348 89.13499433 -1.13640185 86.29449729 -1.12939453 83.42944336 C-1.13114685 82.55439651 -1.13289917 81.67934967 -1.13470459 80.77778625 C-1.13911038 77.88178532 -1.13618982 74.98584532 -1.1328125 72.08984375 C-1.13348584 70.08110034 -1.13445612 68.07235702 -1.13571167 66.06361389 C-1.13718687 61.85286687 -1.13503955 57.64214105 -1.13037109 53.43139648 C-1.12467025 48.02506545 -1.12795619 42.61878402 -1.13394356 37.2124548 C-1.13755083 33.06473921 -1.13640988 28.91703546 -1.13381577 24.76931953 C-1.13314715 22.77534543 -1.13397265 20.78137025 -1.13629532 18.78739738 C-1.13882495 16.00528985 -1.13497699 13.22326357 -1.12939453 10.44116211 C-1.13141876 9.61149933 -1.13344299 8.78183655 -1.13552856 7.92703247 C-1.11426479 2.22852957 -1.11426479 2.22852957 0 0 Z " fill="#FD0E21" transform="translate(576,140)"/>
<path d="M0 0 C1.50880737 0.01244751 1.50880737 0.01244751 3.0480957 0.02514648 C17.72355343 0.35784545 31.03076103 5.27630451 41.4375 16 C48.45013768 24.36416421 52.58751506 33.78255471 54.625 44.4375 C50.08443197 44.69950753 45.54580597 44.85892326 41 45 C39.71480469 45.07541016 38.42960937 45.15082031 37.10546875 45.22851562 C27.72531567 45.44722386 27.72531567 45.44722386 24.51074219 42.49731445 C22.9453125 40.0859375 22.9453125 40.0859375 21.77392578 37.67333984 C19.48768598 33.22425694 15.3629847 31.12974814 10.859375 29.3359375 C3.20974845 27.21104123 -5.57647977 27.11286732 -12.875 30.4375 C-21.93666358 35.83242077 -26.1014445 43.63036059 -29.375 53.4375 C-32.24594831 65.0858699 -30.40146515 76.70497806 -24.90234375 87.265625 C-20.37025771 94.42267813 -14.39807906 98.76314031 -6.375 101.4375 C2.50948227 102.26239105 10.53538182 101.48998844 17.6953125 95.7890625 C21.1086918 92.51850242 23.13883032 89.58111613 25.625 85.4375 C12.755 84.9425 12.755 84.9425 -0.375 84.4375 C-0.375 76.1875 -0.375 67.9375 -0.375 59.4375 C17.775 59.4375 35.925 59.4375 54.625 59.4375 C54.625 81.2175 54.625 102.9975 54.625 125.4375 C46.375 125.4375 38.125 125.4375 29.625 125.4375 C29.625 123.1275 29.625 120.8175 29.625 118.4375 C29.07972656 118.83582031 28.53445312 119.23414063 27.97265625 119.64453125 C16.30117929 127.84449198 4.24709942 129.74133878 -9.84375 128.01171875 C-25.62581517 125.11478562 -38.63548585 117.49666508 -48.1875 104.5625 C-59.37853436 87.47313224 -62.07037063 67.69109818 -58.125 47.8125 C-54.02076908 31.56658595 -45.89756988 17.05101854 -31.28735352 8.11401367 C-21.26968566 2.22054346 -11.62394665 -0.12471414 0 0 Z " fill="#FF0D1F" transform="translate(158.375,276.5625)"/>
<path d="M0 0 C9.24 0 18.48 0 28 0 C30.03123075 2.03123075 29.25669618 6.17768866 29.31640625 8.97265625 C29.33718735 9.77029892 29.35796844 10.56794159 29.37937927 11.38975525 C29.44496158 13.94724611 29.50379967 16.5048428 29.5625 19.0625 C29.60567699 20.79232882 29.64929101 22.52214679 29.69335938 24.25195312 C29.80065172 28.5011926 29.90189426 32.7505389 30 37 C30.99797607 36.48252197 30.99797607 36.48252197 32.01611328 35.95458984 C32.90024902 35.50293457 33.78438477 35.0512793 34.6953125 34.5859375 C35.56687988 34.13782715 36.43844727 33.6897168 37.33642578 33.22802734 C45.88246187 29.28792088 55.50284995 29.02527565 64.48046875 31.75390625 C75.64529116 36.34666452 82.0916384 43.70355638 87.25 54.4375 C92.94789505 68.30237796 92.97898761 85.91446255 88 100 C82.79141412 111.45305299 76.63411904 117.82284052 65.6875 123.8125 C55.16195762 127.20208145 43.32026878 126.82542985 33.3125 121.9375 C30 120 30 120 29 119 C28.67 120.32 28.34 121.64 28 123 C18.76 123 9.52 123 0 123 C0 82.41 0 41.82 0 0 Z M31.71484375 60.90234375 C27.07310438 69.57025132 26.67172455 79.88900213 29.1875 89.3125 C30.88334618 94.34404361 33.19974496 98.29037061 37.85546875 101.1328125 C41.81139484 102.7324766 45.81570667 102.52965738 50 102 C54.88126971 99.64975903 57.48178508 96.7666211 60 92 C63.41967162 81.87699481 63.06185691 70.85063134 58.3125 61.25 C55.13740416 56.78770315 52.20658858 54.60159007 46.79296875 53.5859375 C40.14324374 53.15546126 35.46757664 55.34738655 31.71484375 60.90234375 Z " fill="#FF0D1F" transform="translate(376,279)"/>
<path d="M0 0 C5.64709971 5.72874452 6.74839539 11.84640617 6.73461914 19.61621094 C6.73476517 20.30929855 6.73491119 21.00238617 6.73506165 21.71647644 C6.73436682 23.99981858 6.7265946 26.28307842 6.71875 28.56640625 C6.71688429 30.1525264 6.71546111 31.73864713 6.71446228 33.32476807 C6.71064913 37.4938924 6.70082912 41.66298175 6.6897583 45.83209229 C6.67951832 50.08857754 6.67495912 54.34506847 6.66992188 58.6015625 C6.65920576 66.94923657 6.6416187 75.29687552 6.62109375 83.64453125 C-2.28890625 83.64453125 -11.19890625 83.64453125 -20.37890625 83.64453125 C-20.70890625 82.98453125 -21.03890625 82.32453125 -21.37890625 81.64453125 C-21.04890625 80.98453125 -20.71890625 80.32453125 -20.37890625 79.64453125 C-21.36117187 80.15113281 -21.36117187 80.15113281 -22.36328125 80.66796875 C-29.31061848 84.06313638 -35.6928665 85.86400253 -43.37890625 86.64453125 C-44.42498047 86.7528125 -44.42498047 86.7528125 -45.4921875 86.86328125 C-53.73011746 87.27261938 -63.09133829 85.03387522 -69.37890625 79.64453125 C-76.01799854 73.07101024 -78.52718105 67.61803596 -78.81640625 58.26953125 C-78.58517076 49.24245329 -76.83640227 43.75053829 -70.44140625 37.33203125 C-59.44346217 28.41716486 -43.43063437 28.02128239 -29.92163086 26.06176758 C-27.69636374 25.69662293 -25.55475386 25.23091403 -23.37890625 24.64453125 C-22.91533118 19.72190553 -22.91533118 19.72190553 -24.98828125 15.4296875 C-28.1234616 13.08854793 -30.00516725 13.20320277 -33.87890625 13.33203125 C-35.00296875 13.35652344 -36.12703125 13.38101562 -37.28515625 13.40625 C-40.56235008 13.57187422 -40.56235008 13.57187422 -44.37890625 14.64453125 C-45.36890625 17.94453125 -46.35890625 21.24453125 -47.37890625 24.64453125 C-56.94890625 24.64453125 -66.51890625 24.64453125 -76.37890625 24.64453125 C-75.30902144 13.94568311 -73.94324395 7.67836728 -66.19140625 0.26953125 C-49.60628296 -13.26043775 -16.73243657 -13.74077432 0 0 Z M-34.19140625 46.33203125 C-35.09439453 46.48091797 -35.99738281 46.62980469 -36.92773438 46.78320312 C-42.48511762 47.82444686 -45.8664196 48.8842824 -49.37890625 53.64453125 C-50.2123644 57.18748629 -50.2123644 57.18748629 -49.37890625 60.64453125 C-47.72911393 63.35355617 -47.72911393 63.35355617 -44.37890625 64.64453125 C-37.99624048 65.43009011 -31.7240217 65.61910428 -26.37890625 61.64453125 C-22.3027775 56.30339702 -22.25076356 51.17980839 -22.37890625 44.64453125 C-26.35984452 44.64453125 -30.28717212 45.61391631 -34.19140625 46.33203125 Z " fill="#FF0D1F" transform="translate(555.37890625,318.35546875)"/>
<path d="M0 0 C10.69715661 10.02723367 14.34712814 22.6026223 14.9609375 36.93359375 C15.23553912 49.45718021 11.6070731 61.1431609 3.5625 70.8125 C-5.43314636 80.04838618 -16.32181838 84.07106946 -29 85 C-30.299375 85.103125 -31.59875 85.20625 -32.9375 85.3125 C-46.3672354 84.83084282 -58.9546343 80.23144797 -68.21484375 70.34375 C-76.6645522 59.25004087 -80.04228192 45.75812133 -79 32 C-77.09295846 18.93601465 -73.04932348 7.92538599 -63 -1 C-44.2603463 -14.05795019 -18.17898178 -15.13163801 0 0 Z M-44 17 C-49.67787336 24.66365809 -50.59650979 33.51069649 -49.7421875 42.8046875 C-48.61343657 49.55667036 -46.47390314 54.58794444 -41.5 59.4375 C-36.3116917 61.75370906 -31.59013165 61.72279556 -26 61 C-20.786761 58.9147044 -18.2150841 55.29700462 -15.9140625 50.31640625 C-14.71423826 45.96319781 -14.5269672 41.87460767 -14.5 37.375 C-14.49371582 36.57570068 -14.48743164 35.77640137 -14.48095703 34.95288086 C-14.62546107 28.15207182 -15.94302587 22.49002132 -20.375 17.125 C-24.98126098 13.39612207 -28.88404979 12.50902159 -34.7265625 12.703125 C-38.51520771 13.19786217 -41.27744126 14.39257434 -44 17 Z " fill="#FF0D1F" transform="translate(349,320)"/>
<path d="M0 0 C6.93 0 13.86 0 21 0 C23.63219061 9.51638143 26.0079654 19.07136704 28.25 28.6875 C28.52021973 29.83395996 28.79043945 30.98041992 29.06884766 32.16162109 C29.31940918 33.24652832 29.5699707 34.33143555 29.828125 35.44921875 C30.0540332 36.42205811 30.27994141 37.39489746 30.51269531 38.3972168 C31 41 31 41 31 45 C31.66 45 32.32 45 33 45 C33.12310547 43.85257324 33.24621094 42.70514648 33.37304688 41.52294922 C33.92539194 37.12243104 34.90596897 32.91764274 36.03125 28.6328125 C36.32521667 27.49161453 36.32521667 27.49161453 36.62512207 26.32736206 C37.03630363 24.73521024 37.44986545 23.14367136 37.86572266 21.55273438 C38.50336915 19.11210437 39.13312004 16.66953678 39.76171875 14.2265625 C40.16360578 12.67436084 40.56593365 11.12227324 40.96875 9.5703125 C41.15731567 8.84014923 41.34588135 8.10998596 41.54016113 7.35769653 C42.88366071 2.23267857 42.88366071 2.23267857 44 0 C50.6 0 57.2 0 64 0 C67.63 14.52 71.26 29.04 75 44 C76.96393147 38.10820558 78.70801918 32.4834321 80.04296875 26.46484375 C80.21629227 25.70071671 80.38961578 24.93658966 80.56819153 24.14930725 C81.11223641 21.74631277 81.64998094 19.34196165 82.1875 16.9375 C82.55882591 15.29222311 82.9305672 13.64703992 83.30273438 12.00195312 C84.20739242 8.00251834 85.10348668 4.00130292 86 0 C93.26 0 100.52 0 108 0 C105.14528803 12.40830308 102.01151 24.71003296 98.6875 37 C98.20198081 38.80262977 97.7165487 40.60528299 97.23120117 42.40795898 C93.57552947 55.96415057 89.82356129 69.49008345 86 83 C79.07 83 72.14 83 65 83 C61.37 68.48 57.74 53.96 54 39 C52.09621783 44.7113465 50.35332352 50.20300176 48.9921875 56.02734375 C48.73575974 57.09983116 48.73575974 57.09983116 48.47415161 58.19398499 C47.93731722 60.44094304 47.40571672 62.68908984 46.875 64.9375 C46.33657728 67.21076018 45.7969719 69.48371713 45.25442505 71.7559967 C44.91910755 73.16102396 44.58622735 74.56663568 44.256073 75.97288513 C43.11212197 80.77575606 43.11212197 80.77575606 42 83 C35.07 83 28.14 83 21 83 C16.18976303 65.80812589 11.50622849 48.58205478 6.89364624 31.33615112 C6.29818362 29.11317607 5.70054934 26.89078159 5.10073853 24.66897583 C4.2485931 21.51007201 3.40456914 18.34910259 2.5625 15.1875 C2.30349411 14.2333873 2.04448822 13.2792746 1.77763367 12.29624939 C1.54292862 11.40829178 1.30822357 10.52033417 1.06640625 9.60546875 C0.7561853 8.44760864 0.7561853 8.44760864 0.43969727 7.26635742 C0 5 0 5 0 0 Z " fill="#FF0D1F" transform="translate(421,425)"/>
<path d="M0 0 C3.41511203 -0.10907238 6.82977516 -0.1755912 10.24609375 -0.234375 C11.21365601 -0.2657959 12.18121826 -0.2972168 13.17810059 -0.32958984 C20.3559109 -0.42242636 20.3559109 -0.42242636 23.6184082 1.71728516 C25.4807743 4.33876616 26.67456432 7.06698144 28 10 C29.37495395 12.38532058 30.80982179 14.72856874 32.24975586 17.07519531 C33.74032766 19.50724217 35.19536617 21.95718021 36.64453125 24.4140625 C41.00149172 31.66720973 45.51559352 38.82494963 50 46 C50.33 30.82 50.66 15.64 51 0 C57.6 0 64.2 0 71 0 C71 27.39 71 54.78 71 83 C50 83 50 83 45.34375 78.70703125 C43.8347168 75.88549805 43.8347168 75.88549805 42.5 72.8125 C41.4153333 70.70960842 40.3280272 68.60807644 39.23828125 66.5078125 C38.71314941 65.43047852 38.18801758 64.35314453 37.64697266 63.24316406 C34.99283412 58.01672227 31.83580778 53.12623447 28.6875 48.1875 C27.60520505 46.45360975 26.52552401 44.71808342 25.44921875 42.98046875 C24.99893311 42.25754639 24.54864746 41.53462402 24.0847168 40.78979492 C23 39 23 39 22 37 C21.67 52.18 21.34 67.36 21 83 C14.4 83 7.8 83 1 83 C-0.74292177 81.25707823 -0.11980303 78.99376505 -0.12442017 76.67175293 C-0.12082489 75.90858765 -0.11722961 75.14542236 -0.11352539 74.35913086 C-0.11367142 73.55919205 -0.11381744 72.75925323 -0.1139679 71.93507385 C-0.11326855 69.27830335 -0.10547518 66.62160207 -0.09765625 63.96484375 C-0.09579215 62.12781309 -0.09436821 60.29078194 -0.09336853 58.45375061 C-0.08954275 53.60890338 -0.07971196 48.76408592 -0.06866455 43.91925049 C-0.05845172 38.97937422 -0.05387119 34.03949315 -0.04882812 29.09960938 C-0.03808974 19.39972647 -0.0210126 9.69986571 0 0 Z " fill="#FF0D1F" transform="translate(246,425)"/>
<path d="M0 0 C21.12 0 42.24 0 64 0 C64 5.94 64 11.88 64 18 C50.14 18 36.28 18 22 18 C22 22.29 22 26.58 22 31 C34.54 31 47.08 31 60 31 C60 36.94 60 42.88 60 49 C47.46 49 34.92 49 22 49 C22 53.95 22 58.9 22 64 C35.86 64 49.72 64 64 64 C64 70.27 64 76.54 64 83 C55.8030903 83.02255425 47.60620455 83.04091696 39.40927219 83.05181217 C35.60348423 83.0570402 31.79771852 83.06413638 27.99194336 83.07543945 C24.32207456 83.0862712 20.65222722 83.09227744 16.98234367 83.09487724 C15.57925008 83.09673097 14.17615771 83.1003506 12.7730732 83.10573006 C10.8143032 83.11294419 8.8555118 83.11340809 6.89672852 83.11352539 C5.77976089 83.115746 4.66279327 83.11796661 3.51197815 83.12025452 C1 83 1 83 0 82 C-0.09506052 79.44410112 -0.12556761 76.91532028 -0.11352539 74.35913086 C-0.11367142 73.55919205 -0.11381744 72.75925323 -0.1139679 71.93507385 C-0.11326855 69.27830335 -0.10547518 66.62160207 -0.09765625 63.96484375 C-0.09579215 62.12781309 -0.09436821 60.29078194 -0.09336853 58.45375061 C-0.08954275 53.60890338 -0.07971196 48.76408592 -0.06866455 43.91925049 C-0.05665742 38.11148443 -0.05204848 32.30370844 -0.04621124 26.49593353 C-0.03650023 17.66393495 -0.0173441 8.83200176 0 0 Z " fill="#FF0D1F" transform="translate(342,425)"/>
<path d="M0 0 C4.75795979 3.82914996 7.50325032 7.71919752 9.55859375 13.45703125 C9.55859375 16.75703125 9.55859375 20.05703125 9.55859375 23.45703125 C2.95859375 23.45703125 -3.64140625 23.45703125 -10.44140625 23.45703125 C-11.43140625 20.81703125 -12.42140625 18.17703125 -13.44140625 15.45703125 C-16.45678594 12.99403793 -19.63816252 13.15879341 -23.44140625 13.14453125 C-24.47265625 13.12777344 -25.50390625 13.11101562 -26.56640625 13.09375 C-29.79643719 13.5018925 -31.17846927 14.14021482 -33.44140625 16.45703125 C-33.77538412 19.5829 -33.77538412 19.5829 -33.44140625 22.45703125 C-28.60760255 23.96264224 -23.78086642 25.38851875 -18.86328125 26.59375 C3.73597222 32.16528013 3.73597222 32.16528013 10.55859375 42.45703125 C13.72386248 48.78756871 13.62931822 57.02891066 11.43359375 63.70703125 C8.20156804 70.99025969 3.39420611 75.18578512 -3.8046875 78.45703125 C-16.97464413 83.45185924 -30.92545333 82.3417357 -43.75390625 76.76953125 C-49.46845917 73.65033778 -53.1462867 68.6712679 -56.37890625 63.14453125 C-57.80590708 58.19199896 -57.69121026 53.57338739 -57.44140625 48.45703125 C-54.12892438 48.42814979 -50.81647458 48.41027326 -47.50390625 48.39453125 C-46.55837891 48.38615234 -45.61285156 48.37777344 -44.63867188 48.36914062 C-43.28999023 48.36430664 -43.28999023 48.36430664 -41.9140625 48.359375 C-41.08140869 48.35413818 -40.24875488 48.34890137 -39.39086914 48.34350586 C-37.44140625 48.45703125 -37.44140625 48.45703125 -36.44140625 49.45703125 C-36.25191233 50.89426977 -36.06479662 52.33182221 -35.87890625 53.76953125 C-35.28879429 56.45496828 -34.90068852 58.00952545 -32.91796875 59.94140625 C-27.4514129 63.02052751 -21.57150436 63.28205228 -15.44140625 62.45703125 C-12.89261703 61.28458821 -11.37843247 60.39405747 -9.44140625 58.45703125 C-9.40047688 56.12405692 -9.39898902 53.789979 -9.44140625 51.45703125 C-14.13406955 49.82611021 -18.83367308 48.3153778 -23.6328125 47.02734375 C-24.51517578 46.78886719 -25.39753906 46.55039062 -26.30664062 46.3046875 C-28.10652837 45.82245834 -29.90865381 45.34850592 -31.71289062 44.8828125 C-40.77038524 42.40475618 -48.17145716 38.43970823 -53.44140625 30.45703125 C-56.25369878 24.09880467 -55.98079913 16.99604111 -53.7578125 10.44140625 C-50.35056382 3.71776885 -44.27460925 -1.06222867 -37.44140625 -3.98046875 C-25.49127307 -7.80384931 -10.6951565 -6.7593389 0 0 Z " fill="#FF0D1F" transform="translate(599.44140625,428.54296875)"/>
<path d="M0 0 C1.25554687 -0.00128906 2.51109375 -0.00257813 3.8046875 -0.00390625 C4.46178711 -0.00181152 5.11888672 0.0002832 5.79589844 0.00244141 C7.80411335 0.00779016 9.81210459 0.00249559 11.8203125 -0.00390625 C13.07585937 -0.00261719 14.33140625 -0.00132812 15.625 0 C16.78644531 0.00112793 17.94789063 0.00225586 19.14453125 0.00341797 C21.8125 0.1328125 21.8125 0.1328125 22.8125 1.1328125 C22.90844225 2.71436098 22.9343796 4.30020375 22.93275452 5.88465881 C22.93412918 6.91256027 22.93550385 7.94046173 22.93692017 8.99951172 C22.93332489 10.13670654 22.92972961 11.27390137 22.92602539 12.44555664 C22.92617142 13.63563828 22.92631744 14.82571991 22.9264679 16.05186462 C22.92588894 19.32444524 22.92085981 22.59698357 22.91389394 25.86955571 C22.90765967 29.28619915 22.90705654 32.70284333 22.90586853 36.11949158 C22.90275543 42.59350517 22.89454233 49.06750196 22.88451904 55.54150814 C22.87335725 62.9101917 22.86784729 70.27887605 22.86282361 77.64756596 C22.85235969 92.80932572 22.83401448 107.97106364 22.8125 123.1328125 C12.9125 123.1328125 3.0125 123.1328125 -7.1875 123.1328125 C-7.21004723 107.24325805 -7.22847929 91.35371621 -7.23931217 75.46415043 C-7.24447508 68.08685294 -7.25151767 60.70956607 -7.26293945 53.33227539 C-7.27288646 46.9044907 -7.27935347 40.4767137 -7.28158849 34.04892153 C-7.28289557 30.64341972 -7.28598125 27.23793992 -7.29323006 23.83244514 C-7.30043606 20.03680209 -7.30149113 16.24120538 -7.30102539 12.44555664 C-7.30462067 11.30836182 -7.30821594 10.17116699 -7.31192017 8.99951172 C-7.3105455 7.97161026 -7.30917084 6.9437088 -7.30775452 5.88465881 C-7.30867631 4.98591065 -7.3095981 4.08716249 -7.31054783 3.16117954 C-7.04522991 -1.2124216 -3.64212518 0.00353703 0 0 Z " fill="#FF0D1F" transform="translate(236.1875,278.8671875)"/>
<path d="M0 0 C9.24 0 18.48 0 28 0 C29 1 29 1 29.12304783 3.02836704 C29.12212604 3.9271152 29.12120424 4.82586336 29.12025452 5.75184631 C29.12162918 6.77974777 29.12300385 7.80764923 29.12442017 8.86669922 C29.12082489 10.00389404 29.11722961 11.14108887 29.11352539 12.31274414 C29.11367142 13.50282578 29.11381744 14.69290741 29.1139679 15.91905212 C29.11338894 19.19163274 29.10835981 22.46417107 29.10139394 25.73674321 C29.09515967 29.15338665 29.09455654 32.57003083 29.09336853 35.98667908 C29.09025543 42.46069267 29.08204233 48.93468946 29.07201904 55.40869564 C29.06085725 62.7773792 29.05534729 70.14606355 29.05032361 77.51475346 C29.03985969 92.67651322 29.02151448 107.83825114 29 123 C19.43 123 9.86 123 0 123 C0 82.41 0 41.82 0 0 Z " fill="#FF0D1F" transform="translate(577,279)"/>
<path d="M0 0 C0.66 0.33 1.32 0.66 2 1 C-0.09525951 4.96996539 -2.23498423 7.52059937 -6 10 C-7.32 10 -8.64 10 -10 10 C-13.27961181 13.86113972 -13.44244012 17.68507784 -13.43237305 22.54418945 C-13.4425647 23.28619095 -13.45275635 24.02819244 -13.46325684 24.79267883 C-13.4933298 27.23295702 -13.5026438 29.67284229 -13.51171875 32.11328125 C-13.52856971 33.81008706 -13.54672052 35.50688043 -13.56611633 37.20365906 C-13.61357735 41.66041167 -13.64341185 46.1171138 -13.66955566 50.57403564 C-13.6993809 55.12563039 -13.74590449 59.67705125 -13.79101562 64.22851562 C-13.87700434 73.15225271 -13.94436931 82.07602563 -14 91 C-14.33 91 -14.66 91 -15 91 C-15 93.31 -15 95.62 -15 98 C-13.824375 97.690625 -13.824375 97.690625 -12.625 97.375 C-11.325625 97.189375 -11.325625 97.189375 -10 97 C-9.34 97.66 -8.68 98.32 -8 99 C-10.475 99.99 -10.475 99.99 -13 101 C-13 101.66 -13 102.32 -13 103 C-14.32 103 -15.64 103 -17 103 C-17.20872416 91.38670139 -17.36854222 79.77385037 -17.46630955 68.15905666 C-17.51323916 62.76543775 -17.57686715 57.37310389 -17.67895508 51.98022461 C-17.7768993 46.7735289 -17.83058944 41.56806728 -17.85389519 36.36052132 C-17.87049816 34.37606438 -17.9029226 32.39167348 -17.95157051 30.40774345 C-18.31816411 14.83518044 -18.31816411 14.83518044 -15.03756714 10.26785278 C-12.75490258 8.47363565 -10.61923583 7.2288696 -8 6 C-7.05125 5.236875 -6.1025 4.47375 -5.125 3.6875 C-3 2 -3 2 0 0 Z " fill="#F41022" transform="translate(657,353)"/>
<path d="M0 0 C4.83256305 0.41421969 6.82679218 2.46413986 10 6 C9.01 6.495 9.01 6.495 8 7 C8 6.34 8 5.68 8 5 C7.21625 4.855625 6.4325 4.71125 5.625 4.5625 C3 4 3 4 1 3 C1.01485319 14.68294958 1.05634889 26.36546912 1.13209057 38.04819202 C1.16641667 43.4726956 1.19147928 48.89691586 1.19555664 54.3215332 C1.19982754 59.55429772 1.22818962 64.78642253 1.27343178 70.01898766 C1.28644555 72.01767949 1.29070081 74.01644774 1.28615379 76.01517677 C1.28127528 78.81006008 1.30721667 81.60305372 1.34057617 84.39770508 C1.33195053 85.22848572 1.32332489 86.05926636 1.31443787 86.91522217 C1.30940764 89.48166537 1.30940764 89.48166537 2 93 C4.37900652 95.11507274 4.37900652 95.11507274 7 96 C6.67 96.99 6.34 97.98 6 99 C0.125 95.375 0.125 95.375 -1 92 C-1.09665348 89.13499433 -1.13640185 86.29449729 -1.12939453 83.42944336 C-1.13114685 82.55439651 -1.13289917 81.67934967 -1.13470459 80.77778625 C-1.13911038 77.88178532 -1.13618982 74.98584532 -1.1328125 72.08984375 C-1.13348584 70.08110034 -1.13445612 68.07235702 -1.13571167 66.06361389 C-1.13718687 61.85286687 -1.13503955 57.64214105 -1.13037109 53.43139648 C-1.12467025 48.02506545 -1.12795619 42.61878402 -1.13394356 37.2124548 C-1.13755083 33.06473921 -1.13640988 28.91703546 -1.13381577 24.76931953 C-1.13314715 22.77534543 -1.13397265 20.78137025 -1.13629532 18.78739738 C-1.13882495 16.00528985 -1.13497699 13.22326357 -1.12939453 10.44116211 C-1.13141876 9.61149933 -1.13344299 8.78183655 -1.13552856 7.92703247 C-1.11426479 2.22852957 -1.11426479 2.22852957 0 0 Z " fill="#E87B84" transform="translate(576,140)"/>
<path d="M0 0 C0.66 0.33 1.32 0.66 2 1 C2 30.7 2 60.4 2 91 C0.02 91.99 0.02 91.99 -2 93 C-2 93.66 -2 94.32 -2 95 C-3.96147874 96.38938077 -5.96166576 97.7260411 -8 99 C-8.66 98.67 -9.32 98.34 -10 98 C-9.34 97.01 -8.68 96.02 -8 95 C-7.01 95 -6.02 95 -5 95 C-5 94.01 -5 93.02 -5 92 C-4.01 92 -3.02 92 -2 92 C-2 91.01 -2 90.02 -2 89 C-1.34 89 -0.68 89 0 89 C0 59.63 0 30.26 0 0 Z " fill="#F17E85" transform="translate(765,275)"/>
<path d="M0 0 C0.66 0 1.32 0 2 0 C2 0.66 2 1.32 2 2 C1.01 2.495 1.01 2.495 0 3 C0 30.72 0 58.44 0 87 C2.475 86.505 2.475 86.505 5 86 C5.66 86.66 6.32 87.32 7 88 C4.525 88.99 4.525 88.99 2 90 C2 90.66 2 91.32 2 92 C0.68 92 -0.64 92 -2 92 C-2.04626739 80.30001563 -2.08184065 68.6000529 -2.10362434 56.8999958 C-2.11407752 51.4676402 -2.12826461 46.03534702 -2.15087891 40.60302734 C-2.1725527 35.36405699 -2.18455706 30.12514681 -2.18975449 24.8861351 C-2.19346009 22.88377815 -2.20069583 20.88142462 -2.21146011 18.87909317 C-2.22590247 16.08224527 -2.227981 13.2856485 -2.22705078 10.48876953 C-2.23424133 9.65439362 -2.24143188 8.8200177 -2.24884033 7.96035767 C-2.22810432 2.22810432 -2.22810432 2.22810432 0 0 Z " fill="#F65B64" transform="translate(642,364)"/>
<path d="M0 0 C0.33 0 0.66 0 1 0 C1.01030746 0.95577942 1.02061493 1.91155884 1.03123474 2.89630127 C1.12896962 11.90139855 1.23170384 20.90642674 1.33933926 29.91141129 C1.39451543 34.5410145 1.44792696 39.17062409 1.49731445 43.80029297 C1.54503624 48.26774308 1.59738188 52.73511722 1.65294075 57.2024765 C1.67332889 58.90729634 1.69204778 60.61213698 1.70907402 62.31699371 C1.73319647 64.70391865 1.7632402 67.09070082 1.79467773 69.47753906 C1.8004332 70.18316483 1.80618866 70.88879059 1.81211853 71.61579895 C1.86104515 74.88157536 2.00474664 77.87461704 3 81 C4.98 81.33 6.96 81.66 9 82 C8.505 82.99 8.505 82.99 8 84 C6.02 84 4.04 84 2 84 C2.33 84.66 2.66 85.32 3 86 C1.515 86.495 1.515 86.495 0 87 C0 58.29 0 29.58 0 0 Z " fill="#EE1421" transform="translate(641,367)"/>
<path d="M0 0 C1.65 0 3.3 0 5 0 C1.4944222 3.64813364 -2.1249963 6.76940717 -6.1875 9.8125 C-7.23292969 10.60269531 -8.27835938 11.39289063 -9.35546875 12.20703125 C-12 14 -12 14 -14 14 C-14.33 13.01 -14.66 12.02 -15 11 C-13.02 10.67 -11.04 10.34 -9 10 C-9.33 9.01 -9.66 8.02 -10 7 C-8.35 7 -6.7 7 -5 7 C-5 6.01 -5 5.02 -5 4 C-4.01 4 -3.02 4 -2 4 C-2 3.34 -2 2.68 -2 2 C-1.34 2 -0.68 2 0 2 C0 1.34 0 0.68 0 0 Z " fill="#EC5466" transform="translate(679,425)"/>
<path d="M0 0 C1.32 0.99 2.64 1.98 4 3 C2.61019248 4.13243576 1.21285323 5.25563119 -0.1875 6.375 C-0.96480469 7.00148438 -1.74210938 7.62796875 -2.54296875 8.2734375 C-4.96879382 9.97807134 -7.21309045 11.01987906 -10 12 C-9.25 7.25 -9.25 7.25 -7 5 C-4.67724823 4.59952556 -2.34260643 4.2602896 0 4 C0 2.68 0 1.36 0 0 Z " fill="#EE4157" transform="translate(716,397)"/>
<path d="M0 0 C3.57294032 1.32002058 6.63953492 2.89521388 9.8125 5 C10.60269531 5.515625 11.39289062 6.03125 12.20703125 6.5625 C12.79871094 7.036875 13.39039063 7.51125 14 8 C14 8.66 14 9.32 14 10 C15.2065625 10.433125 15.2065625 10.433125 16.4375 10.875 C19 12 19 12 20 14 C18.68 14 17.36 14 16 14 C15.67 13.34 15.34 12.68 15 12 C13.34948712 10.88365848 13.34948712 10.88365848 11.4375 9.875 C10.303125 9.25625 9.16875 8.6375 8 8 C8 7.34 8 6.68 8 6 C7.4225 5.896875 6.845 5.79375 6.25 5.6875 C3.64338842 4.89103535 2.0264689 3.80934723 0 2 C0 1.34 0 0.68 0 0 Z " fill="#ED6879" transform="translate(616,168)"/>
<path d="M0 0 C0.66 0.33 1.32 0.66 2 1 C-0.09525951 4.96996539 -2.23498423 7.52059937 -6 10 C-8.33333333 10 -10.66666667 10 -13 10 C-11.33333333 8.66666667 -9.66666667 7.33333333 -8 6 C-7.13375 5.29875 -6.2675 4.5975 -5.375 3.875 C-3 2 -3 2 0 0 Z " fill="#F33A50" transform="translate(657,353)"/>
<path d="M0 0 C1.98 0 3.96 0 6 0 C6.33 0.66 6.66 1.32 7 2 C7.99 2.33 8.98 2.66 10 3 C10 3.99 10 4.98 10 6 C11.32 6.33 12.64 6.66 14 7 C14 8.32 14 9.64 14 11 C13.49210938 10.61328125 12.98421875 10.2265625 12.4609375 9.828125 C9.19408332 7.3565724 5.93836498 4.91667921 2.5 2.6875 C1.675 2.130625 0.85 1.57375 0 1 C0 0.67 0 0.34 0 0 Z " fill="#EB5568" transform="translate(583,239)"/>
<path d="M0 0 C0.33 0.66 0.66 1.32 1 2 C0 3 -1 4 -2 5 C-2.7115625 5.7734375 -2.7115625 5.7734375 -3.4375 6.5625 C-5.2298448 8.21145722 -6.70748338 9.16635759 -9 10 C-10.32 9.67 -11.64 9.34 -13 9 C-8.71 6.03 -4.42 3.06 0 0 Z " fill="#EB5965" transform="translate(677,339)"/>
<path d="M0 0 C1.33333333 0.66666667 2.66666667 1.33333333 4 2 C5.010625 2.474375 6.02125 2.94875 7.0625 3.4375 C9.62315877 4.79955254 11.08981104 5.89879215 13 8 C13.66 8.33 14.32 8.66 15 9 C14.67 9.66 14.34 10.32 14 11 C3.85679485 5.60796938 3.85679485 5.60796938 0 2 C0 1.34 0 0.68 0 0 Z " fill="#EA5B63" transform="translate(705,232)"/>
<path d="M0 0 C3.3 0.33 6.6 0.66 10 1 C10 2.98 10 4.96 10 7 C5.56541027 5.6062718 3.12621626 3.39417765 0 0 Z " fill="#EB414E" transform="translate(598,249)"/>
<path d="M0 0 C0.33 0 0.66 0 1 0 C1 1.65 1 3.3 1 5 C0.01 5.33 -0.98 5.66 -2 6 C-2 6.66 -2 7.32 -2 8 C-3.96147874 9.38938077 -5.96166576 10.7260411 -8 12 C-8.66 11.67 -9.32 11.34 -10 11 C-9.34 10.01 -8.68 9.02 -8 8 C-7.01 8 -6.02 8 -5 8 C-5 7.01 -5 6.02 -5 5 C-4.01 5 -3.02 5 -2 5 C-2 4.01 -2 3.02 -2 2 C-1.34 2 -0.68 2 0 2 C0 1.34 0 0.68 0 0 Z " fill="#EE5F74" transform="translate(765,362)"/>
<path d="M0 0 C1.508013 0.92455559 3.00624917 1.8650747 4.5 2.8125 C5.75296875 3.59560547 5.75296875 3.59560547 7.03125 4.39453125 C7.6809375 4.92433594 8.330625 5.45414063 9 6 C9 6.99 9 7.98 9 9 C5.6885981 8.42906864 4.24945577 7.45395174 2 5 C1.34 4.67 0.68 4.34 0 4 C0 2.68 0 1.36 0 0 Z " fill="#EB505F" transform="translate(695,224)"/>
<path d="M0 0 C3.83663072 1.34929464 6.65172569 3.07751025 9.8125 5.625 C10.99779297 6.57246094 10.99779297 6.57246094 12.20703125 7.5390625 C12.79871094 8.02117187 13.39039063 8.50328125 14 9 C13.01 9.33 12.02 9.66 11 10 C8.95880212 8.38405168 6.95927063 6.7143618 5 5 C4.01 4.67 3.02 4.34 2 4 C2 3.34 2 2.68 2 2 C1.34 2 0.68 2 0 2 C0 1.34 0 0.68 0 0 Z " fill="#EA757E" transform="translate(658,198)"/>
<path d="M0 0 C0 0.66 0 1.32 0 2 C-1.75 3.5078125 -1.75 3.5078125 -4 5.125 C-4.7425 5.66382813 -5.485 6.20265625 -6.25 6.7578125 C-6.8275 7.16773438 -7.405 7.57765625 -8 8 C-8.66 7.67 -9.32 7.34 -10 7 C-10 5.68 -10 4.36 -10 3 C-8.68 3.33 -7.36 3.66 -6 4 C-5.67 3.01 -5.34 2.02 -5 1 C-3 0 -3 0 0 0 Z " fill="#ED4A5A" transform="translate(664,439)"/>
<path d="M0 0 C4.43458973 1.3937282 6.87378374 3.60582235 10 7 C9.01 7.495 9.01 7.495 8 8 C5.375 6.6875 5.375 6.6875 3 5 C3 4.34 3 3.68 3 3 C2.01 3 1.02 3 0 3 C0 2.01 0 1.02 0 0 Z " fill="#E7475F" transform="translate(680,214)"/>
<path d="M0 0 C1.98 0 3.96 0 6 0 C3.0094833 3.33557632 0.06815373 5.15083921 -4 7 C-4 5.68 -4 4.36 -4 3 C-2.68 3 -1.36 3 0 3 C0 2.01 0 1.02 0 0 Z " fill="#EB5B61" transform="translate(741,380)"/>
<path d="M0 0 C7.77268561 1.90650779 7.77268561 1.90650779 10 5 C10.33 5.99 10.66 6.98 11 8 C6.99698968 6.23867546 3.3971023 3.73867517 0 1 C0 0.67 0 0.34 0 0 Z " fill="#EE596C" transform="translate(638,278)"/>
<path d="M0 0 C0.33 0.66 0.66 1.32 1 2 C-0.06893218 3.03590338 -1.15578488 4.05333942 -2.25 5.0625 C-3.15492188 5.91521484 -3.15492188 5.91521484 -4.078125 6.78515625 C-5.02945313 7.38650391 -5.02945313 7.38650391 -6 8 C-7.32 7.67 -8.64 7.34 -10 7 C-6.7 4.69 -3.4 2.38 0 0 Z " fill="#EC5867" transform="translate(688,331)"/>
<path d="M0 0 C4.10839064 1.45002023 7.50344613 3.3979134 11 6 C11 6.66 11 7.32 11 8 C9.68 8 8.36 8 7 8 C6.67 7.01 6.34 6.02 6 5 C2.99992729 3.29144978 2.99992729 3.29144978 0 2 C0 1.34 0 0.68 0 0 Z " fill="#EE7478" transform="translate(598,155)"/>
<path d="M0 0 C1.48280196 0.78483659 2.9611498 1.57809334 4.4375 2.375 C5.67306641 3.03628906 5.67306641 3.03628906 6.93359375 3.7109375 C9 5 9 5 10 7 C8.68 7 7.36 7 6 7 C6 6.34 6 5.68 6 5 C4.68 5.33 3.36 5.66 2 6 C2 5.01 2 4.02 2 3 C1.34 3 0.68 3 0 3 C0 2.01 0 1.02 0 0 Z " fill="#EA5064" transform="translate(586,146)"/>
<path d="M0 0 C3.34373475 0.55728913 6.03312999 1.35173889 9 3 C8.67 4.32 8.34 5.64 8 7 C6.66382648 6.02471263 5.3311249 5.04466681 4 4.0625 C3.2575 3.51722656 2.515 2.97195313 1.75 2.41015625 C1.1725 1.94480469 0.595 1.47945313 0 1 C0 0.67 0 0.34 0 0 Z " fill="#ED5464" transform="translate(655,290)"/>
<path d="M0 0 C3.55780196 0.60990891 6.6828589 1.5783681 10 3 C10 4.32 10 5.64 10 7 C6.42032008 5.34784004 3.22017048 3.26875648 0 1 C0 0.67 0 0.34 0 0 Z " fill="#ED515F" transform="translate(610,258)"/>
<path d="M0 0 C5.37305699 0.88082902 5.37305699 0.88082902 8 2 C10 5.125 10 5.125 11 8 C6.99698968 6.23867546 3.3971023 3.73867517 0 1 C0 0.67 0 0.34 0 0 Z " fill="#EA5E66" transform="translate(666,298)"/>
<path d="M0 0 C4.83256305 0.41421969 6.82679218 2.46413986 10 6 C9.01 6.495 9.01 6.495 8 7 C8 6.34 8 5.68 8 5 C7.236875 4.896875 6.47375 4.79375 5.6875 4.6875 C2.82503132 3.95524057 1.80432431 3.27914649 0 1 C0 0.67 0 0.34 0 0 Z " fill="#E54F5B" transform="translate(576,140)"/>
<path d="M0 0 C2.375 0.3125 2.375 0.3125 5 1 C5.66 1.99 6.32 2.98 7 4 C7.66 3.67 8.32 3.34 9 3 C9.33 4.32 9.66 5.64 10 7 C5.56541027 5.6062718 3.12621626 3.39417765 0 0 Z " fill="#EF6C79" transform="translate(677,306)"/>
<path d="M0 0 C2.97 0.495 2.97 0.495 6 1 C3.60490662 3.89932357 1.68754757 4.50168276 -2 5 C-1.34 3.35 -0.68 1.7 0 0 Z " fill="#EA3A4D" transform="translate(643,450)"/>
<path d="M0 0 C3.77126791 1.01180358 4.78414572 1.67621858 7 5 C5.35 5 3.7 5 2 5 C2 4.01 2 3.02 2 2 C0.35 2 -1.3 2 -3 2 C-2.01 1.34 -1.02 0.68 0 0 Z " fill="#EF5D67" transform="translate(747,262)"/>
<path d="M0 0 C1.65 0 3.3 0 5 0 C3.37660195 1.70884005 1.70680947 3.37446717 0 5 C-0.66 5 -1.32 5 -2 5 C-2 4.01 -2 3.02 -2 2 C-1.34 2 -0.68 2 0 2 C0 1.34 0 0.68 0 0 Z " fill="#E94759" transform="translate(679,425)"/>
<path d="M0 0 C3.91402949 1.26941497 5.79072873 2.51167694 8 6 C7.01 6 6.02 6 5 6 C4.67 5.34 4.34 4.68 4 4 C1.97536745 3.34786708 1.97536745 3.34786708 0 3 C0 2.01 0 1.02 0 0 Z " fill="#ED687A" transform="translate(672,208)"/>
<path d="M0 0 C4.67692308 1.47692308 4.67692308 1.47692308 6.3125 4.125 C6.539375 4.74375 6.76625 5.3625 7 6 C4.50638429 4.79618552 2.31856917 3.54571278 0 2 C0 1.34 0 0.68 0 0 Z " fill="#E7505D" transform="translate(616,168)"/>
<path d="M0 0 C0.66 0.33 1.32 0.66 2 1 C1.67 1.99 1.34 2.98 1 4 C-0.98 4.33 -2.96 4.66 -5 5 C-5 4.34 -5 3.68 -5 3 C-2.625 1.3125 -2.625 1.3125 0 0 Z " fill="#EF6D7E" transform="translate(657,353)"/>
<path d="M0 0 C0.33 1.32 0.66 2.64 1 4 C0.34 4 -0.32 4 -1 4 C-1.33 4.99 -1.66 5.98 -2 7 C-3.32 6.67 -4.64 6.34 -6 6 C-5.195625 5.38125 -4.39125 4.7625 -3.5625 4.125 C-0.96125481 2.25835959 -0.96125481 2.25835959 0 0 Z " fill="#ED6A7C" transform="translate(695,324)"/>
<path d="M0 0 C0 1.32 0 2.64 0 4 C0.66 4 1.32 4 2 4 C1.67 4.66 1.34 5.32 1 6 C-0.98 4.68 -2.96 3.36 -5 2 C-2 0 -2 0 0 0 Z " fill="#EC505F" transform="translate(636,272)"/>
<path d="M0 0 C3.37503669 1.1858237 5.64722731 2.27573689 8 5 C4.62537285 4.45276317 2.91765 3.9451 0 2 C0 1.34 0 0.68 0 0 Z " fill="#EA5D6A" transform="translate(720,243)"/>
</svg>
